<svg xmlns="http://www.w3.org/2000/svg" viewBox="0 0 1000 590" width="1000" height="590" role="img" aria-label="4교시 6단계 — 메뉴로 실행해 정리본 시트와 결과 알림창이 나온 화면">
  <title>4교시 6단계 — 메뉴로 실행해 정리본 시트와 결과 알림창이 나온 화면</title>
  <rect x="0" y="0" width="1000" height="590" fill="#FFFFFF"/>
  <rect x="14" y="14" width="972" height="430" rx="14" fill="#FFFFFF" stroke="#D9DDE3" stroke-width="1.5"/><path d="M14 28 a14 14 0 0 1 14 -14 h944 a14 14 0 0 1 14 14 v26 h-972 z" fill="#F3F5F8"/><circle cx="40" cy="40" r="6" fill="#FF5F57"/><circle cx="60" cy="40" r="6" fill="#FEBC2E"/><circle cx="80" cy="40" r="6" fill="#28C840"/><line x1="14" y1="54" x2="986" y2="54" stroke="#E6E8EC" stroke-width="1"/>
  <rect x="60" y="130" width="40" height="24" fill="#EEF1F5" stroke="#D5DAE2" stroke-width="1"/><rect x="100" y="130" width="150" height="24" fill="#EEF1F5" stroke="#D5DAE2" stroke-width="1"/><text x="175" y="147" font-size="11.5" fill="#5F6368" font-weight="700" text-anchor="middle" font-family="'Noto Sans KR','Malgun Gothic','Apple SD Gothic Neo',sans-serif">A</text><rect x="250" y="130" width="200" height="24" fill="#EEF1F5" stroke="#D5DAE2" stroke-width="1"/><text x="350" y="147" font-size="11.5" fill="#5F6368" font-weight="700" text-anchor="middle" font-family="'Noto Sans KR','Malgun Gothic','Apple SD Gothic Neo',sans-serif">B</text><rect x="450" y="130" width="210" height="24" fill="#EEF1F5" stroke="#D5DAE2" stroke-width="1"/><text x="555" y="147" font-size="11.5" fill="#5F6368" font-weight="700" text-anchor="middle" font-family="'Noto Sans KR','Malgun Gothic','Apple SD Gothic Neo',sans-serif">C</text><rect x="660" y="130" width="210" height="24" fill="#EEF1F5" stroke="#D5DAE2" stroke-width="1"/><text x="765" y="147" font-size="11.5" fill="#5F6368" font-weight="700" text-anchor="middle" font-family="'Noto Sans KR','Malgun Gothic','Apple SD Gothic Neo',sans-serif">D</text><rect x="60" y="154" width="40" height="30" fill="#EEF1F5" stroke="#D5DAE2" stroke-width="1"/><text x="80" y="173.5" font-size="11.5" fill="#5F6368" font-weight="700" text-anchor="middle" font-family="'Noto Sans KR','Malgun Gothic','Apple SD Gothic Neo',sans-serif">1</text><rect x="100" y="154" width="150" height="30" fill="#FFFFFF" stroke="#D5DAE2" stroke-width="1"/><text x="110" y="173.5" font-size="12.5" fill="#202124" font-weight="700" font-family="'Noto Sans KR','Malgun Gothic','Apple SD Gothic Neo',sans-serif">이름</text><rect x="250" y="154" width="200" height="30" fill="#FFFFFF" stroke="#D5DAE2" stroke-width="1"/><text x="260" y="173.5" font-size="12.5" fill="#202124" font-weight="700" font-family="'Noto Sans KR','Malgun Gothic','Apple SD Gothic Neo',sans-serif">소속</text><rect x="450" y="154" width="210" height="30" fill="#FFFFFF" stroke="#D5DAE2" stroke-width="1"/><text x="460" y="173.5" font-size="12.5" fill="#202124" font-weight="700" font-family="'Noto Sans KR','Malgun Gothic','Apple SD Gothic Neo',sans-serif">연락처</text><rect x="660" y="154" width="210" height="30" fill="#FFFFFF" stroke="#D5DAE2" stroke-width="1"/><text x="670" y="173.5" font-size="12.5" fill="#202124" font-weight="700" font-family="'Noto Sans KR','Malgun Gothic','Apple SD Gothic Neo',sans-serif">신청항목</text><rect x="60" y="184" width="40" height="30" fill="#EEF1F5" stroke="#D5DAE2" stroke-width="1"/><text x="80" y="203.5" font-size="11.5" fill="#5F6368" font-weight="700" text-anchor="middle" font-family="'Noto Sans KR','Malgun Gothic','Apple SD Gothic Neo',sans-serif">2</text><rect x="100" y="184" width="150" height="30" fill="#FFFFFF" stroke="#D5DAE2" stroke-width="1"/><text x="110" y="203.5" font-size="12.5" fill="#202124" font-weight="400" font-family="'Noto Sans KR','Malgun Gothic','Apple SD Gothic Neo',sans-serif">이서연</text><rect x="250" y="184" width="200" height="30" fill="#FFFFFF" stroke="#D5DAE2" stroke-width="1"/><text x="260" y="203.5" font-size="12.5" fill="#202124" font-weight="400" font-family="'Noto Sans KR','Malgun Gothic','Apple SD Gothic Neo',sans-serif">문화체육과</text><rect x="450" y="184" width="210" height="30" fill="#FFFFFF" stroke="#D5DAE2" stroke-width="1"/><text x="460" y="203.5" font-size="12.5" fill="#202124" font-weight="400" font-family="'Noto Sans KR','Malgun Gothic','Apple SD Gothic Neo',sans-serif">010-****-5678</text><rect x="660" y="184" width="210" height="30" fill="#FFFFFF" stroke="#D5DAE2" stroke-width="1"/><text x="670" y="203.5" font-size="12.5" fill="#202124" font-weight="400" font-family="'Noto Sans KR','Malgun Gothic','Apple SD Gothic Neo',sans-serif">시설 점검</text><rect x="60" y="214" width="40" height="30" fill="#EEF1F5" stroke="#D5DAE2" stroke-width="1"/><text x="80" y="233.5" font-size="11.5" fill="#5F6368" font-weight="700" text-anchor="middle" font-family="'Noto Sans KR','Malgun Gothic','Apple SD Gothic Neo',sans-serif">3</text><rect x="100" y="214" width="150" height="30" fill="#FFFFFF" stroke="#D5DAE2" stroke-width="1"/><text x="110" y="233.5" font-size="12.5" fill="#202124" font-weight="400" font-family="'Noto Sans KR','Malgun Gothic','Apple SD Gothic Neo',sans-serif">김민수</text><rect x="250" y="214" width="200" height="30" fill="#FFFFFF" stroke="#D5DAE2" stroke-width="1"/><text x="260" y="233.5" font-size="12.5" fill="#202124" font-weight="400" font-family="'Noto Sans KR','Malgun Gothic','Apple SD Gothic Neo',sans-serif">복지정책과</text><rect x="450" y="214" width="210" height="30" fill="#FFFFFF" stroke="#D5DAE2" stroke-width="1"/><text x="460" y="233.5" font-size="12.5" fill="#202124" font-weight="400" font-family="'Noto Sans KR','Malgun Gothic','Apple SD Gothic Neo',sans-serif">010-****-1234</text><rect x="660" y="214" width="210" height="30" fill="#FFFFFF" stroke="#D5DAE2" stroke-width="1"/><text x="670" y="233.5" font-size="12.5" fill="#202124" font-weight="400" font-family="'Noto Sans KR','Malgun Gothic','Apple SD Gothic Neo',sans-serif">경로당 보수</text><rect x="60" y="260" width="82" height="28" rx="4" fill="#F1F3F4" stroke="#D5DAE2" stroke-width="1"/><text x="101" y="279" font-size="12.5" fill="#5F6368" font-weight="400" text-anchor="middle" font-family="'Noto Sans KR','Malgun Gothic','Apple SD Gothic Neo',sans-serif">신청접수</text><rect x="148" y="260" width="69" height="28" rx="4" fill="#FFFFFF" stroke="#D5DAE2" stroke-width="1"/><text x="182.5" y="279" font-size="12.5" fill="#174EA6" font-weight="700" text-anchor="middle" font-family="'Noto Sans KR','Malgun Gothic','Apple SD Gothic Neo',sans-serif">정리본</text><rect x="223" y="260" width="82" height="28" rx="4" fill="#F1F3F4" stroke="#D5DAE2" stroke-width="1"/><text x="264" y="279" font-size="12.5" fill="#5F6368" font-weight="400" text-anchor="middle" font-family="'Noto Sans KR','Malgun Gothic','Apple SD Gothic Neo',sans-serif">삭제목록</text><rect x="560" y="240" width="380" height="156" rx="12" fill="#FFFFFF" stroke="#D9DDE3" stroke-width="1.5"/><circle cx="594" cy="274" r="14" fill="#E8F0FE"/><text x="594" y="279" font-size="15" fill="#174EA6" font-weight="700" text-anchor="middle" font-family="'Noto Sans KR','Malgun Gothic','Apple SD Gothic Neo',sans-serif">i</text><text x="620" y="272" font-size="14.5" fill="#202124" font-weight="700" font-family="'Noto Sans KR','Malgun Gothic','Apple SD Gothic Neo',sans-serif">명단 정리 완료</text><text x="584" y="318" font-size="12.5" fill="#5F6368" font-weight="400" font-family="'Noto Sans KR','Malgun Gothic','Apple SD Gothic Neo',sans-serif">원본 3건 → 정리본 2건, 삭제 1건</text><rect x="856" y="348" width="60" height="32" rx="6" fill="#1A73E8" stroke="#1A73E8" stroke-width="1"/><text x="886" y="368.5" font-size="12.5" fill="#FFFFFF" font-weight="700" text-anchor="middle" font-family="'Noto Sans KR','Malgun Gothic','Apple SD Gothic Neo',sans-serif">확인</text><rect x="52" y="122" width="826" height="130" rx="8" fill="none" stroke="#F97316" stroke-width="2" stroke-dasharray="7 5"/><circle cx="30" cy="187" r="13" fill="#F97316" stroke="#FFFFFF" stroke-width="2.5"/><text x="30" y="192" font-size="14" fill="#fff" font-weight="700" text-anchor="middle" font-family="'Noto Sans KR','Malgun Gothic','Apple SD Gothic Neo',sans-serif">1</text><rect x="140" y="252" width="203" height="44" rx="8" fill="none" stroke="#F97316" stroke-width="2" stroke-dasharray="7 5"/><circle cx="241.5" cy="316" r="13" fill="#F97316" stroke="#FFFFFF" stroke-width="2.5"/><text x="241.5" y="321" font-size="14" fill="#fff" font-weight="700" text-anchor="middle" font-family="'Noto Sans KR','Malgun Gothic','Apple SD Gothic Neo',sans-serif">2</text><rect x="552" y="232" width="396" height="172" rx="8" fill="none" stroke="#F97316" stroke-width="2" stroke-dasharray="7 5"/><circle cx="750" cy="212" r="13" fill="#F97316" stroke="#FFFFFF" stroke-width="2.5"/><text x="750" y="217" font-size="14" fill="#fff" font-weight="700" text-anchor="middle" font-family="'Noto Sans KR','Malgun Gothic','Apple SD Gothic Neo',sans-serif">3</text>
  <line x1="14" y1="464" x2="986" y2="464" stroke="#E6E8EC" stroke-width="1.5"/><circle cx="34" cy="494" r="12" fill="#F97316"/><text x="34" y="499" font-size="13" fill="#fff" font-weight="700" text-anchor="middle" font-family="'Noto Sans KR','Malgun Gothic','Apple SD Gothic Neo',sans-serif">1</text><text x="56" y="499" font-size="14.5" fill="#1F2937" font-weight="400" font-family="'Noto Sans KR','Malgun Gothic','Apple SD Gothic Neo',sans-serif">정리본 시트에 중복이 빠진 결과가 들어왔다. 원본 신청접수 는 그대로 남아 있다</text><circle cx="34" cy="524" r="12" fill="#F97316"/><text x="34" y="529" font-size="13" fill="#fff" font-weight="700" text-anchor="middle" font-family="'Noto Sans KR','Malgun Gothic','Apple SD Gothic Neo',sans-serif">2</text><text x="56" y="529" font-size="14.5" fill="#1F2937" font-weight="400" font-family="'Noto Sans KR','Malgun Gothic','Apple SD Gothic Neo',sans-serif">정리본 과 삭제목록 두 시트가 새로 생겼는지 본다 — 지운 행을 눈으로 확인할 수 있어야 한다</text><circle cx="34" cy="554" r="12" fill="#F97316"/><text x="34" y="559" font-size="13" fill="#fff" font-weight="700" text-anchor="middle" font-family="'Noto Sans KR','Malgun Gothic','Apple SD Gothic Neo',sans-serif">3</text><text x="56" y="559" font-size="14.5" fill="#1F2937" font-weight="400" font-family="'Noto Sans KR','Malgun Gothic','Apple SD Gothic Neo',sans-serif">알림창 숫자를 원본과 대조한다. 3건 → 2건 + 1건이 맞으면 도구가 제대로 돈 것이다</text>
</svg>
