<svg xmlns="http://www.w3.org/2000/svg" viewBox="0 0 1000 500" width="1000" height="500" role="img" aria-label="7교시 4단계 — 계획서 6~8번 칸에 일정과 담당을 적은 화면">
  <title>7교시 4단계 — 계획서 6~8번 칸에 일정과 담당을 적은 화면</title>
  <rect x="0" y="0" width="1000" height="500" fill="#FFFFFF"/>
  <rect x="14" y="14" width="972" height="340" rx="14" fill="#FFFFFF" stroke="#D9DDE3" stroke-width="1.5"/><path d="M14 28 a14 14 0 0 1 14 -14 h944 a14 14 0 0 1 14 14 v26 h-972 z" fill="#F3F5F8"/><circle cx="40" cy="40" r="6" fill="#FF5F57"/><circle cx="60" cy="40" r="6" fill="#FEBC2E"/><circle cx="80" cy="40" r="6" fill="#28C840"/><line x1="14" y1="54" x2="986" y2="54" stroke="#E6E8EC" stroke-width="1"/>
  <text x="60" y="104" font-size="15" fill="#202124" font-weight="700" font-family="'Noto Sans KR','Malgun Gothic','Apple SD Gothic Neo',sans-serif">6~8번 칸 — 어떻게 굴릴 것인가</text><rect x="60" y="122" width="170" height="46" fill="#F7F9FC" stroke="#D5DAE2" stroke-width="1"/><text x="74" y="149.5" font-size="12.5" fill="#5F6368" font-weight="700" font-family="'Noto Sans KR','Malgun Gothic','Apple SD Gothic Neo',sans-serif">6 적용 일정</text><rect x="230" y="122" width="710" height="46" fill="#FFF9EC" stroke="#D5DAE2" stroke-width="1"/><text x="244" y="149.5" font-size="12.5" fill="#202124" font-weight="400" font-family="'Noto Sans KR','Malgun Gothic','Apple SD Gothic Neo',sans-serif">1주 담당자 시범 → 2주 팀 내 공유 → 3주 부서 전체 적용</text><rect x="60" y="168" width="170" height="46" fill="#F7F9FC" stroke="#D5DAE2" stroke-width="1"/><text x="74" y="195.5" font-size="12.5" fill="#5F6368" font-weight="700" font-family="'Noto Sans KR','Malgun Gothic','Apple SD Gothic Neo',sans-serif">7 담당과 관리</text><rect x="230" y="168" width="710" height="46" fill="#FFF9EC" stroke="#D5DAE2" stroke-width="1"/><text x="244" y="195.5" font-size="12.5" fill="#202124" font-weight="400" font-family="'Noto Sans KR','Malgun Gothic','Apple SD Gothic Neo',sans-serif">주담당 정○○ / 대행 김○○ / 실행기록 시트로 매월 점검</text><rect x="60" y="214" width="170" height="46" fill="#F7F9FC" stroke="#D5DAE2" stroke-width="1"/><text x="74" y="241.5" font-size="12.5" fill="#5F6368" font-weight="700" font-family="'Noto Sans KR','Malgun Gothic','Apple SD Gothic Neo',sans-serif">8 위험과 대비</text><rect x="230" y="214" width="710" height="46" fill="#FFF9EC" stroke="#D5DAE2" stroke-width="1"/><text x="244" y="241.5" font-size="12.5" fill="#202124" font-weight="400" font-family="'Noto Sans KR','Malgun Gothic','Apple SD Gothic Neo',sans-serif">시트 열 순서가 바뀌면 멈춤 → 돌리기 전 열 이름 확인을 규칙으로</text><rect x="52" y="114" width="896" height="62" rx="8" fill="none" stroke="#F97316" stroke-width="2" stroke-dasharray="7 5"/><circle cx="30" cy="145" r="13" fill="#F97316" stroke="#FFFFFF" stroke-width="2.5"/><text x="30" y="150" font-size="14" fill="#fff" font-weight="700" text-anchor="middle" font-family="'Noto Sans KR','Malgun Gothic','Apple SD Gothic Neo',sans-serif">1</text><rect x="52" y="160" width="896" height="62" rx="8" fill="none" stroke="#F97316" stroke-width="2" stroke-dasharray="7 5"/><circle cx="30" cy="191" r="13" fill="#F97316" stroke="#FFFFFF" stroke-width="2.5"/><text x="30" y="196" font-size="14" fill="#fff" font-weight="700" text-anchor="middle" font-family="'Noto Sans KR','Malgun Gothic','Apple SD Gothic Neo',sans-serif">2</text><rect x="52" y="206" width="896" height="62" rx="8" fill="none" stroke="#F97316" stroke-width="2" stroke-dasharray="7 5"/><circle cx="30" cy="237" r="13" fill="#F97316" stroke="#FFFFFF" stroke-width="2.5"/><text x="30" y="242" font-size="14" fill="#fff" font-weight="700" text-anchor="middle" font-family="'Noto Sans KR','Malgun Gothic','Apple SD Gothic Neo',sans-serif">3</text>
  <line x1="14" y1="374" x2="986" y2="374" stroke="#E6E8EC" stroke-width="1.5"/><circle cx="34" cy="404" r="12" fill="#F97316"/><text x="34" y="409" font-size="13" fill="#fff" font-weight="700" text-anchor="middle" font-family="'Noto Sans KR','Malgun Gothic','Apple SD Gothic Neo',sans-serif">1</text><text x="56" y="409" font-size="14.5" fill="#1F2937" font-weight="400" font-family="'Noto Sans KR','Malgun Gothic','Apple SD Gothic Neo',sans-serif">한 번에 부서 전체로 가지 않는다. 시범 1주를 넣어야 결재가 쉽게 난다</text><circle cx="34" cy="434" r="12" fill="#F97316"/><text x="34" y="439" font-size="13" fill="#fff" font-weight="700" text-anchor="middle" font-family="'Noto Sans KR','Malgun Gothic','Apple SD Gothic Neo',sans-serif">2</text><text x="56" y="439" font-size="14.5" fill="#1F2937" font-weight="400" font-family="'Noto Sans KR','Malgun Gothic','Apple SD Gothic Neo',sans-serif">대행자를 반드시 적는다. 담당자 한 명에게 묶인 도구는 오래 못 간다</text><circle cx="34" cy="464" r="12" fill="#F97316"/><text x="34" y="469" font-size="13" fill="#fff" font-weight="700" text-anchor="middle" font-family="'Noto Sans KR','Malgun Gothic','Apple SD Gothic Neo',sans-serif">3</text><text x="56" y="469" font-size="14.5" fill="#1F2937" font-weight="400" font-family="'Noto Sans KR','Malgun Gothic','Apple SD Gothic Neo',sans-serif">위험은 하나만 적고 대비를 붙인다. 6교시 운영 규칙에서 그대로 가져오면 된다</text>
</svg>
