<svg xmlns="http://www.w3.org/2000/svg" viewBox="0 0 1000 560" width="1000" height="560" role="img" aria-label="3단계 4번 — 파일 이름이 아니라 문서 내용으로 예전 기안문을 찾아낸 화면">
  <title>3단계 4번 — 파일 이름이 아니라 문서 내용으로 예전 기안문을 찾아낸 화면</title>
  <rect x="0" y="0" width="1000" height="560" fill="#FFFFFF"/>
  <rect x="14" y="14" width="972" height="400" rx="14" fill="#FFFFFF" stroke="#D9DDE3" stroke-width="1.5"/><path d="M14 28 a14 14 0 0 1 14 -14 h944 a14 14 0 0 1 14 14 v26 h-972 z" fill="#F3F5F8"/><circle cx="40" cy="40" r="6" fill="#FF5F57"/><circle cx="60" cy="40" r="6" fill="#FEBC2E"/><circle cx="80" cy="40" r="6" fill="#28C840"/><line x1="14" y1="54" x2="986" y2="54" stroke="#E6E8EC" stroke-width="1"/>
  <text x="50" y="88" font-size="13.5" fill="#202124" font-weight="700" font-family="'Noto Sans KR','Malgun Gothic','Apple SD Gothic Neo',sans-serif">파일 이름이 아니라 문서 안의 문장으로 찾습니다</text><rect x="50" y="100" width="750" height="34" rx="6" fill="#FFFFFF" stroke="#DADCE0" stroke-width="1"/><text x="62" y="121.5" font-size="12.5" fill="#202124" font-weight="400" font-family="'Noto Sans KR','Malgun Gothic','Apple SD Gothic Neo',sans-serif">경로당 냉난방 보수 기준</text><rect x="810" y="100" width="120" height="34" rx="6" fill="#1A73E8" stroke="#1A73E8" stroke-width="1"/><text x="870" y="121.5" font-size="12.5" fill="#FFFFFF" font-weight="700" text-anchor="middle" font-family="'Noto Sans KR','Malgun Gothic','Apple SD Gothic Neo',sans-serif">내용으로 검색</text><rect x="50" y="152" width="880" height="62" rx="8" fill="#FFFFFF" stroke="#D5DAE2" stroke-width="1"/><text x="66" y="176" font-size="13" fill="#174EA6" font-weight="700" font-family="'Noto Sans KR','Malgun Gothic','Apple SD Gothic Neo',sans-serif">2025_복지정책과_경로당개선_기안문.hwp</text><text x="66" y="197" font-size="11.5" fill="#6B7280" font-weight="400" font-family="'Noto Sans KR','Malgun Gothic','Apple SD Gothic Neo',sans-serif">… 냉난방 설비 보수 기준은 사용연수 10년 이상 …</text><text x="914" y="176" font-size="11.5" fill="#9AA0A6" font-weight="400" text-anchor="end" font-family="'Noto Sans KR','Malgun Gothic','Apple SD Gothic Neo',sans-serif">2025-04-18</text><rect x="50" y="222" width="880" height="62" rx="8" fill="#FFFFFF" stroke="#D5DAE2" stroke-width="1"/><text x="66" y="246" font-size="13" fill="#174EA6" font-weight="700" font-family="'Noto Sans KR','Malgun Gothic','Apple SD Gothic Neo',sans-serif">2024_시행계획_복지분야.pdf</text><text x="66" y="267" font-size="11.5" fill="#6B7280" font-weight="400" font-family="'Noto Sans KR','Malgun Gothic','Apple SD Gothic Neo',sans-serif">… 경로당 냉난방 교체 대상 선정 기준을 다음과 같이 …</text><text x="914" y="246" font-size="11.5" fill="#9AA0A6" font-weight="400" text-anchor="end" font-family="'Noto Sans KR','Malgun Gothic','Apple SD Gothic Neo',sans-serif">2024-11-02</text><rect x="50" y="292" width="880" height="62" rx="8" fill="#FFFFFF" stroke="#D5DAE2" stroke-width="1"/><text x="66" y="316" font-size="13" fill="#174EA6" font-weight="700" font-family="'Noto Sans KR','Malgun Gothic','Apple SD Gothic Neo',sans-serif">경로당_점검표_양식.xlsx</text><text x="66" y="337" font-size="11.5" fill="#6B7280" font-weight="400" font-family="'Noto Sans KR','Malgun Gothic','Apple SD Gothic Neo',sans-serif">… 냉난방 · 누수 · 전기 안전 점검 항목 …</text><text x="914" y="316" font-size="11.5" fill="#9AA0A6" font-weight="400" text-anchor="end" font-family="'Noto Sans KR','Malgun Gothic','Apple SD Gothic Neo',sans-serif">2024-03-07</text><rect x="42" y="92" width="766" height="50" rx="8" fill="none" stroke="#F97316" stroke-width="2" stroke-dasharray="7 5"/><circle cx="425" cy="72" r="13" fill="#F97316" stroke="#FFFFFF" stroke-width="2.5"/><text x="425" y="77" font-size="14" fill="#fff" font-weight="700" text-anchor="middle" font-family="'Noto Sans KR','Malgun Gothic','Apple SD Gothic Neo',sans-serif">1</text><rect x="42" y="284" width="896" height="78" rx="8" fill="none" stroke="#F97316" stroke-width="2" stroke-dasharray="7 5"/><circle cx="960" cy="323" r="13" fill="#F97316" stroke="#FFFFFF" stroke-width="2.5"/><text x="960" y="328" font-size="14" fill="#fff" font-weight="700" text-anchor="middle" font-family="'Noto Sans KR','Malgun Gothic','Apple SD Gothic Neo',sans-serif">2</text><rect x="58" y="176" width="486" height="36" rx="8" fill="none" stroke="#F97316" stroke-width="2" stroke-dasharray="7 5"/><circle cx="36" cy="194" r="13" fill="#F97316" stroke="#FFFFFF" stroke-width="2.5"/><text x="36" y="199" font-size="14" fill="#fff" font-weight="700" text-anchor="middle" font-family="'Noto Sans KR','Malgun Gothic','Apple SD Gothic Neo',sans-serif">3</text>
  <line x1="14" y1="434" x2="986" y2="434" stroke="#E6E8EC" stroke-width="1.5"/><circle cx="34" cy="464" r="12" fill="#F97316"/><text x="34" y="469" font-size="13" fill="#fff" font-weight="700" text-anchor="middle" font-family="'Noto Sans KR','Malgun Gothic','Apple SD Gothic Neo',sans-serif">1</text><text x="56" y="469" font-size="14.5" fill="#1F2937" font-weight="400" font-family="'Noto Sans KR','Malgun Gothic','Apple SD Gothic Neo',sans-serif">파일 이름이 기억나지 않아도 된다. 문서에 있었던 문장을 그대로 친다</text><circle cx="34" cy="494" r="12" fill="#F97316"/><text x="34" y="499" font-size="13" fill="#fff" font-weight="700" text-anchor="middle" font-family="'Noto Sans KR','Malgun Gothic','Apple SD Gothic Neo',sans-serif">2</text><text x="56" y="499" font-size="14.5" fill="#1F2937" font-weight="400" font-family="'Noto Sans KR','Malgun Gothic','Apple SD Gothic Neo',sans-serif">문서 종류를 가리지 않는다 — 한글·PDF·엑셀이 한 목록에 나온다</text><circle cx="34" cy="524" r="12" fill="#F97316"/><text x="34" y="529" font-size="13" fill="#fff" font-weight="700" text-anchor="middle" font-family="'Noto Sans KR','Malgun Gothic','Apple SD Gothic Neo',sans-serif">3</text><text x="56" y="529" font-size="14.5" fill="#1F2937" font-weight="400" font-family="'Noto Sans KR','Malgun Gothic','Apple SD Gothic Neo',sans-serif">찾은 문장 앞뒤가 함께 보여 어느 문서인지 열어 보지 않고도 판단할 수 있다</text>
</svg>
